<?xml version="1.0" standalone="no"?>
<!DOCTYPE svg PUBLIC "-//W3C//DTD SVG 20010904//EN"
 "http://www.w3.org/TR/2001/REC-SVG-20010904/DTD/svg10.dtd">
<svg version="1.0" xmlns="http://www.w3.org/2000/svg"
 width="1280.000000pt" height="936.000000pt" viewBox="0 0 1280.000000 936.000000"
 preserveAspectRatio="xMidYMid meet">
<metadata>
Created by potrace 1.15, written by Peter Selinger 2001-2017
</metadata>
<g transform="translate(0.000000,936.000000) scale(0.100000,-0.100000)"
fill="#000000" stroke="none">
<path d="M755 9351 c-29 -13 -62 -51 -80 -93 -30 -74 -11 -189 45 -266 l30
-42 -28 -6 c-139 -29 -266 -129 -337 -266 -112 -212 2 -347 210 -249 76 35
183 136 228 213 31 53 62 162 53 185 -5 11 -2 13 11 8 100 -42 121 -47 185
-43 61 3 71 7 103 38 64 62 71 142 20 247 -40 81 -161 200 -246 242 -69 34
-157 48 -194 32z"/>
<path d="M8254 9336 c-65 -29 -99 -104 -92 -200 7 -85 41 -150 117 -227 72
-72 145 -112 231 -130 104 -21 188 26 211 116 l11 43 29 -33 c133 -151 482
-84 570 108 26 58 25 151 -1 195 -92 150 -515 69 -607 -117 l-20 -39 -42 63
c-53 82 -128 147 -216 190 -83 40 -147 51 -191 31z"/>
<path d="M1436 9320 c-70 -22 -111 -101 -104 -198 11 -160 165 -322 344 -362
95 -22 172 11 206 87 42 94 1 210 -116 328 -106 107 -249 170 -330 145z"/>
<path d="M6973 9310 c-50 -12 -94 -42 -115 -80 -24 -44 -19 -140 11 -197 74
-144 310 -224 475 -162 67 25 128 88 146 153 10 38 10 49 -7 87 -62 139 -327
243 -510 199z"/>
<path d="M2293 9296 c-140 -32 -279 -129 -301 -210 -18 -65 18 -144 88 -195
152 -110 453 -29 531 142 25 57 25 151 0 193 -42 68 -186 100 -318 70z"/>
<path d="M7663 9271 c-59 -37 -89 -127 -72 -216 32 -171 209 -325 384 -333 57
-2 76 1 103 17 81 51 97 159 40 272 -92 184 -345 329 -455 260z"/>
<path d="M4428 9236 c-109 -39 -140 -109 -103 -233 64 -216 444 -301 589 -131
44 51 62 114 47 161 -26 78 -153 168 -286 202 -72 18 -197 19 -247 1z"/>
<path d="M5348 9226 c-161 -67 -299 -246 -299 -388 -1 -98 49 -144 146 -136
78 7 158 51 240 132 96 95 140 182 140 278 0 63 -2 70 -32 99 -44 44 -114 50
-195 15z"/>
<path d="M3670 9202 c-120 -34 -206 -89 -252 -161 -32 -51 -35 -85 -12 -139
59 -143 259 -189 447 -103 81 36 117 68 152 133 23 43 29 66 29 118 1 78 -17
111 -78 142 -58 30 -197 35 -286 10z"/>
<path d="M6034 9200 c-179 -26 -340 -136 -351 -242 -8 -87 74 -182 182 -209
64 -16 187 -6 258 22 68 26 150 95 178 151 44 85 34 185 -22 232 -47 40 -151
59 -245 46z"/>
<path d="M2847 9089 c-51 -12 -87 -32 -117 -64 -22 -23 -25 -35 -25 -98 1 -84
20 -132 77 -189 91 -91 282 -137 404 -98 114 37 188 143 163 233 -36 135 -323
258 -502 216z"/>
<path d="M6574 9051 c-75 -35 -178 -130 -223 -206 -118 -195 -46 -352 137
-300 203 58 392 331 327 469 -35 73 -133 88 -241 37z"/>
<path d="M4085 8786 c-151 -76 -275 -247 -275 -378 0 -55 17 -87 60 -116 28
-19 44 -23 81 -19 128 11 287 138 355 281 33 69 36 83 32 141 -6 91 -32 117
-120 123 -56 3 -71 0 -133 -32z"/>
<path d="M7175 8783 c-87 -12 -206 -60 -273 -111 -45 -34 -82 -100 -82 -146 0
-82 73 -164 170 -193 70 -20 184 -13 263 17 127 48 199 135 205 250 3 48 0 76
-12 98 -34 66 -147 101 -271 85z"/>
<path d="M9199 8733 c-234 -116 -361 -433 -201 -500 153 -64 437 171 459 379
15 148 -98 201 -258 121z"/>
<path d="M2050 8741 c-47 -15 -88 -41 -109 -67 -17 -21 -21 -41 -21 -94 0
-122 74 -218 210 -272 44 -17 77 -22 160 -22 100 -1 108 1 160 30 70 40 111
96 117 161 4 41 0 55 -26 96 -37 58 -128 119 -220 148 -71 23 -227 35 -271 20z"/>
<path d="M7648 8646 c-57 -20 -83 -41 -102 -79 -51 -109 23 -263 157 -326 164
-77 322 -67 416 27 59 59 79 115 62 171 -24 81 -149 171 -286 206 -72 18 -197
19 -247 1z"/>
<path d="M8585 8638 c-115 -16 -219 -63 -287 -132 -76 -75 -80 -156 -11 -235
60 -70 101 -86 223 -86 86 1 116 5 163 24 128 50 198 136 205 249 6 87 -13
124 -82 156 -60 28 -127 36 -211 24z"/>
<path d="M4691 8615 c-190 -35 -344 -171 -317 -277 3 -13 18 -43 34 -68 123
-193 531 -115 597 115 31 104 0 185 -84 218 -57 23 -147 28 -230 12z"/>
<path d="M1310 8604 c-119 -32 -229 -105 -266 -175 -23 -46 -18 -110 14 -157
54 -80 124 -113 238 -114 215 -1 374 126 374 299 0 55 -3 66 -30 97 -18 20
-50 41 -77 50 -58 20 -179 20 -253 0z"/>
<path d="M5407 8595 c-88 -22 -167 -64 -225 -118 -87 -83 -92 -157 -16 -246
128 -149 452 -100 560 85 35 60 43 154 17 204 -39 75 -196 110 -336 75z"/>
<path d="M10830 8561 c-49 -16 -126 -60 -168 -96 -50 -43 -123 -144 -144 -200
l-15 -39 -21 40 c-35 68 -98 140 -167 189 -81 58 -150 85 -215 85 -43 0 -55
-5 -89 -35 -132 -120 -34 -383 184 -491 126 -62 228 -57 286 16 l31 38 36 -25
c32 -21 45 -24 93 -20 94 8 223 89 290 182 l33 47 16 -64 c25 -102 75 -159
185 -209 59 -27 86 -33 166 -37 82 -4 102 -2 143 17 27 11 49 21 50 21 0 0 2
-27 3 -60 4 -135 105 -235 280 -276 127 -30 252 2 319 79 71 83 67 165 -12
243 -51 51 -161 108 -241 125 -57 11 -215 8 -244 -5 -15 -6 -15 -3 -6 33 47
175 -341 358 -557 263 l-47 -21 6 44 c8 53 -7 104 -40 135 -27 25 -108 36
-155 21z"/>
<path d="M5910 8502 c-51 -27 -80 -90 -80 -173 0 -180 192 -368 385 -377 60
-3 75 0 104 20 121 82 95 247 -64 404 -120 119 -262 171 -345 126z"/>
<path d="M3451 8394 c-145 -73 -261 -226 -269 -359 -5 -77 13 -116 64 -140
153 -72 447 172 462 385 10 143 -101 192 -257 114z"/>
<path d="M2585 8347 c-95 -32 -125 -70 -125 -157 1 -66 17 -114 54 -163 105
-137 373 -182 508 -86 47 34 88 106 88 154 0 127 -193 252 -400 261 -53 3
-100 -1 -125 -9z"/>
<path d="M6582 8319 c-66 -11 -102 -30 -136 -69 -35 -43 -37 -132 -2 -205 70
-152 319 -238 485 -169 105 44 169 171 127 253 -19 36 -94 105 -143 129 -97
50 -240 76 -331 61z"/>
<path d="M550 8281 c-91 -28 -130 -76 -130 -161 0 -166 168 -299 376 -300 157
0 274 90 274 213 0 98 -120 196 -295 242 -62 16 -182 19 -225 6z"/>
<path d="M9469 8245 c-51 -16 -104 -68 -115 -112 -11 -42 13 -144 44 -188 36
-52 98 -98 169 -126 83 -33 249 -34 308 -2 73 39 135 123 135 183 0 82 -123
191 -269 236 -70 22 -217 27 -272 9z"/>
<path d="M1783 8220 c-78 -52 -96 -187 -39 -303 69 -143 246 -256 381 -245 68
6 102 28 133 89 30 57 24 119 -18 205 -89 182 -348 326 -457 254z"/>
<path d="M7297 8176 c-99 -27 -142 -84 -133 -179 7 -75 33 -124 96 -180 102
-92 286 -127 413 -78 68 26 127 95 142 167 32 157 -298 329 -518 270z"/>
<path d="M4050 8141 c-166 -45 -280 -143 -280 -240 0 -63 71 -157 138 -182 99
-38 219 -31 328 20 127 59 180 145 175 288 -3 108 -180 163 -361 114z"/>
<path d="M9013 8136 c-65 -21 -136 -71 -203 -142 -132 -142 -165 -296 -78
-369 30 -25 38 -27 99 -23 87 7 154 42 245 133 180 178 191 397 21 411 -23 2
-61 -2 -84 -10z"/>
<path d="M8095 8091 c-48 -12 -92 -38 -115 -68 -19 -24 -21 -38 -18 -104 2
-63 8 -84 33 -124 61 -98 171 -155 316 -163 139 -7 232 37 278 131 29 60 27
105 -6 154 -48 70 -119 118 -223 153 -70 23 -215 35 -265 21z"/>
<path d="M4920 8059 c-159 -23 -306 -117 -341 -216 -23 -67 36 -168 125 -216
59 -32 226 -31 306 1 78 31 144 83 177 139 24 41 28 59 28 125 0 71 -2 79 -29
107 -51 53 -155 77 -266 60z"/>
<path d="M5688 8016 c-116 -32 -245 -146 -304 -270 -27 -57 -34 -83 -34 -133
0 -54 4 -67 28 -93 126 -142 477 104 499 350 11 119 -68 180 -189 146z"/>
<path d="M1390 7891 c-101 -31 -236 -153 -289 -262 -61 -125 -49 -223 33 -263
35 -17 46 -18 94 -8 87 18 142 50 223 131 148 147 189 309 98 385 -25 21 -41
26 -82 25 -29 0 -63 -4 -77 -8z"/>
<path d="M687 7745 c-151 -56 -293 -230 -305 -373 -9 -109 33 -157 133 -156
118 1 286 128 355 268 59 119 51 224 -20 261 -36 18 -112 18 -163 0z"/>
<path d="M2844 7746 c-95 -43 -121 -185 -58 -314 38 -77 127 -165 206 -202
153 -72 265 -55 310 47 43 97 1 212 -121 333 -118 116 -257 173 -337 136z"/>
<path d="M6321 7745 c-138 -31 -256 -109 -294 -194 -17 -38 -17 -49 -7 -87 37
-132 191 -200 363 -160 168 39 264 134 274 271 6 78 -17 121 -79 153 -58 30
-168 37 -257 17z"/>
<path d="M9275 7722 c-168 -80 -312 -301 -276 -423 15 -51 40 -75 89 -88 119
-32 316 99 399 266 56 113 55 207 -4 253 -40 31 -132 28 -208 -8z"/>
<path d="M6913 7711 c-130 -60 -114 -284 31 -426 96 -93 245 -150 330 -125
117 34 150 150 81 287 -65 131 -234 262 -355 278 -33 4 -56 0 -87 -14z"/>
<path d="M3700 7651 c-124 -23 -248 -91 -302 -165 -39 -54 -39 -115 1 -178 16
-25 42 -54 58 -66 144 -102 422 -42 518 113 24 39 30 61 33 119 4 88 -17 128
-82 156 -50 23 -161 33 -226 21z"/>
<path d="M12216 7638 c-112 -21 -256 -110 -292 -179 -38 -75 3 -183 89 -233
133 -78 352 -43 461 74 62 66 78 109 74 194 -3 62 -7 71 -35 97 -59 52 -175
71 -297 47z"/>
<path d="M4214 7611 c-46 -28 -69 -83 -69 -166 0 -59 5 -81 33 -137 59 -121
190 -218 324 -240 81 -13 129 2 172 55 28 35 31 46 31 105 0 92 -36 163 -129
257 -125 127 -275 179 -362 126z"/>
<path d="M7667 7616 c-76 -21 -127 -82 -127 -154 0 -69 30 -136 88 -192 81
-80 152 -105 292 -105 121 0 160 15 223 84 51 57 65 108 43 165 -55 144 -332
252 -519 202z"/>
<path d="M2192 7606 c-98 -32 -126 -74 -120 -176 9 -158 146 -267 349 -278
139 -7 232 37 278 131 29 60 27 105 -6 154 -47 69 -133 125 -242 159 -69 22
-207 27 -259 10z"/>
<path d="M8430 7522 c-59 -58 -72 -127 -44 -223 43 -146 179 -268 334 -301 69
-14 120 -5 160 29 43 36 60 74 60 136 0 78 -46 164 -134 253 -93 93 -192 144
-279 144 -55 0 -62 -2 -97 -38z"/>
<path d="M5794 7462 c-115 -40 -224 -138 -283 -256 -107 -211 13 -343 219
-239 235 117 364 432 205 499 -45 18 -79 17 -141 -4z"/>
<path d="M4914 7456 c-64 -28 -100 -109 -91 -205 16 -156 174 -314 349 -350
131 -28 226 49 216 175 -12 143 -176 324 -340 376 -70 21 -92 22 -134 4z"/>
<path d="M1715 7432 c-145 -51 -285 -206 -315 -350 -14 -63 -1 -118 36 -153
22 -20 35 -24 92 -24 92 0 165 36 258 129 151 152 188 331 81 396 -39 24 -86
25 -152 2z"/>
<path d="M6550 7204 c-47 -40 -64 -80 -64 -155 0 -167 157 -341 344 -381 69
-14 120 -5 160 29 43 36 60 74 60 135 0 80 -44 165 -133 253 -134 133 -290
184 -367 119z"/>
<path d="M798 7207 c-195 -73 -363 -312 -316 -452 44 -131 230 -105 389 56 91
91 134 178 134 271 0 63 -2 70 -32 99 -26 27 -41 33 -85 36 -29 2 -69 -3 -90
-10z"/>
<path d="M12385 7132 c-33 -10 -80 -29 -103 -41 -53 -27 -128 -95 -148 -132
-45 -88 27 -214 145 -254 128 -43 326 7 415 105 50 55 67 99 69 176 2 74 -16
105 -79 138 -55 29 -214 33 -299 8z"/>
<path d="M4080 7073 c-109 -38 -226 -146 -283 -263 -26 -53 -32 -76 -32 -132
0 -63 2 -70 33 -100 30 -31 37 -33 100 -33 57 0 76 6 131 35 143 77 262 243
264 367 0 69 -13 97 -56 123 -38 24 -95 25 -157 3z"/>
<path d="M7525 7075 c-178 -32 -325 -144 -325 -247 0 -79 68 -162 159 -193 87
-30 224 -14 323 36 100 51 158 140 158 244 0 102 -44 145 -168 165 -66 11 -58
12 -147 -5z"/>
<path d="M9205 7072 c-110 -38 -225 -144 -283 -261 -60 -122 -49 -229 29 -261
46 -19 138 -7 201 26 82 44 188 156 228 239 59 123 44 227 -35 261 -45 18 -79
17 -140 -4z"/>
<path d="M3370 7065 c-147 -33 -290 -136 -306 -219 -15 -84 65 -190 167 -220
177 -53 403 41 459 190 41 111 17 188 -71 232 -60 30 -162 37 -249 17z"/>
<path d="M8209 7070 c-57 -10 -96 -30 -129 -65 -22 -24 -25 -35 -25 -104 0
-69 3 -83 30 -127 65 -104 201 -169 350 -168 61 1 91 6 127 23 51 24 113 86
128 127 35 92 -19 182 -150 253 -99 53 -235 78 -331 61z"/>
<path d="M2473 6986 c-65 -31 -83 -63 -83 -148 0 -76 22 -128 76 -181 101
-100 304 -145 426 -94 78 33 147 122 148 190 0 68 -65 144 -170 197 -84 42
-161 60 -260 60 -69 0 -95 -5 -137 -24z"/>
<path d="M6070 6982 c-120 -34 -206 -89 -252 -161 -31 -50 -35 -82 -13 -134
48 -115 165 -168 322 -145 104 15 206 68 255 132 59 80 74 189 34 251 -44 68
-210 95 -346 57z"/>
<path d="M4580 6959 c-45 -10 -95 -65 -110 -120 -47 -172 128 -396 343 -441
66 -14 118 -4 157 29 43 36 60 74 60 136 0 183 -282 431 -450 396z"/>
<path d="M2057 6935 c-155 -57 -297 -235 -305 -385 -4 -60 -2 -69 23 -98 73
-88 226 -51 366 89 93 92 134 177 134 277 0 71 -1 75 -33 103 -28 25 -40 29
-90 28 -31 0 -74 -7 -95 -14z"/>
<path d="M5477 6815 c-185 -70 -352 -313 -308 -448 20 -60 53 -82 125 -82 160
0 358 181 397 365 14 64 2 115 -36 150 -31 29 -120 37 -178 15z"/>
<path d="M1087 6809 c-53 -12 -92 -34 -116 -65 -26 -33 -29 -142 -6 -198 48
-115 195 -196 356 -196 99 0 161 22 215 76 80 80 83 160 8 243 -97 108 -313
174 -457 140z"/>
<path d="M7998 6666 c-80 -33 -151 -89 -209 -166 -145 -192 -109 -381 68 -356
72 10 152 55 229 131 230 227 169 497 -88 391z"/>
<path d="M12567 6640 c-200 -78 -363 -359 -278 -478 65 -91 234 -51 371 88
145 147 184 341 79 395 -38 20 -114 18 -172 -5z"/>
<path d="M7052 6544 c-93 -25 -132 -71 -132 -156 0 -174 159 -298 380 -298
125 0 205 42 251 132 67 130 -65 275 -294 322 -92 19 -135 19 -205 0z"/>
<path d="M6456 6515 c-135 -35 -264 -127 -288 -207 -23 -77 34 -172 130 -219
90 -44 260 -27 368 36 115 68 176 220 125 315 -40 75 -196 110 -335 75z"/>
<path d="M4056 6499 c-55 -13 -104 -46 -121 -79 -18 -35 -19 -122 -1 -171 46
-131 205 -216 384 -207 120 6 189 44 233 130 58 114 -32 239 -220 304 -81 28
-212 39 -275 23z"/>
<path d="M472 6465 c-49 -41 -66 -81 -66 -155 -1 -186 201 -383 395 -384 53
-1 73 3 96 20 121 89 91 259 -71 411 -93 87 -169 126 -257 131 -59 4 -68 2
-97 -23z"/>
<path d="M3330 6474 c-124 -24 -254 -98 -300 -171 -34 -54 -37 -91 -11 -148
65 -144 271 -184 461 -89 103 52 156 125 166 231 11 115 -59 175 -209 179 -45
1 -93 0 -107 -2z"/>
<path d="M8983 6460 c-104 -21 -145 -69 -145 -166 1 -152 119 -262 315 -294
123 -19 238 20 297 102 57 78 52 142 -17 218 -95 106 -299 169 -450 140z"/>
<path d="M8509 6418 c-164 -81 -302 -296 -269 -419 25 -93 116 -120 235 -69
178 76 329 311 285 444 -27 83 -134 102 -251 44z"/>
<path d="M2363 6420 c-79 -48 -97 -186 -39 -304 81 -164 318 -289 440 -231
131 62 117 248 -30 399 -131 134 -283 190 -371 136z"/>
<path d="M5755 6314 c-60 -22 -164 -103 -214 -167 -58 -76 -90 -157 -91 -230
0 -51 3 -61 34 -94 32 -35 38 -38 93 -38 171 0 388 214 401 395 5 68 -14 112
-58 135 -36 19 -112 18 -165 -1z"/>
<path d="M4943 6245 c-138 -31 -270 -123 -294 -206 -21 -70 22 -158 104 -208
124 -76 363 -32 466 86 67 75 89 185 52 253 -40 75 -184 108 -328 75z"/>
<path d="M1725 6209 c-119 -105 -54 -341 129 -463 194 -129 376 -82 376 97 0
168 -237 397 -412 397 -50 0 -62 -4 -93 -31z"/>
<path d="M1405 6211 c-97 -23 -237 -137 -298 -241 -40 -68 -60 -160 -47 -209
26 -98 129 -120 258 -56 183 92 322 341 252 453 -32 52 -91 71 -165 53z"/>
<path d="M12471 6079 c-77 -39 -175 -129 -218 -200 -18 -30 -40 -83 -49 -119
-15 -58 -16 -70 -3 -109 20 -62 55 -86 127 -85 167 3 377 209 399 391 16 138
-107 196 -256 122z"/>
<path d="M7593 6080 c-62 -13 -121 -46 -138 -80 -8 -16 -15 -55 -15 -88 0
-145 123 -261 312 -292 106 -18 196 3 262 61 69 60 94 145 62 208 -42 81 -179
163 -313 186 -87 16 -110 16 -170 5z"/>
<path d="M3795 5997 c-165 -42 -296 -151 -295 -244 1 -65 71 -159 139 -184
126 -49 298 -19 411 71 22 17 50 54 64 83 58 118 39 214 -50 258 -59 28 -190
36 -269 16z"/>
<path d="M6813 5990 c-82 -50 -99 -189 -38 -310 51 -99 148 -181 263 -219 107
-36 189 -22 233 41 71 100 26 243 -118 379 -121 113 -261 158 -340 109z"/>
<path d="M6099 5980 c-56 -10 -96 -30 -129 -65 -22 -24 -25 -35 -25 -103 0
-65 4 -84 27 -122 51 -88 128 -138 254 -166 125 -27 233 -4 301 66 61 62 79
139 49 199 -21 40 -96 106 -155 136 -92 46 -234 70 -322 55z"/>
<path d="M8934 5911 c-11 -5 -32 -23 -46 -40 -112 -133 -11 -378 198 -481 93
-46 193 -53 243 -18 60 41 76 71 76 146 0 57 -6 77 -34 130 -73 135 -240 260
-359 268 -32 2 -66 0 -78 -5z"/>
<path d="M3168 5846 c-184 -66 -354 -315 -307 -450 31 -88 131 -108 251 -48
221 109 359 424 217 497 -35 18 -111 19 -161 1z"/>
<path d="M4355 5833 c-87 -23 -134 -142 -100 -258 35 -121 115 -211 244 -273
63 -31 86 -36 143 -36 52 0 74 4 95 20 48 36 66 70 71 133 4 51 0 70 -25 123
-79 168 -305 322 -428 291z"/>
<path d="M8266 5779 c-71 -10 -113 -34 -144 -80 -34 -49 -27 -149 14 -217 64
-103 194 -166 344 -167 74 0 93 4 143 29 65 31 110 84 127 148 41 151 -244
321 -484 287z"/>
<path d="M640 5744 c-121 -33 -229 -105 -266 -175 -40 -79 10 -189 111 -242
49 -25 169 -34 244 -18 121 26 233 112 259 199 17 57 15 139 -5 172 -30 52
-86 74 -193 77 -63 2 -114 -2 -150 -13z"/>
<path d="M5058 5730 c-64 -11 -117 -39 -142 -73 -33 -45 -29 -146 9 -215 35
-65 71 -96 150 -133 172 -81 360 -51 436 69 41 65 46 102 19 157 -60 125 -301
224 -472 195z"/>
<path d="M2350 5684 c-119 -32 -229 -105 -266 -175 -45 -87 22 -209 140 -254
35 -14 65 -16 138 -13 116 6 189 33 256 93 66 60 92 116 92 201 0 63 -2 68
-38 104 -21 21 -55 43 -77 49 -55 15 -179 13 -245 -5z"/>
<path d="M1348 5546 c-96 -35 -123 -77 -116 -175 6 -78 24 -118 79 -171 135
-131 391 -148 505 -34 72 71 82 160 29 230 -35 46 -129 106 -208 134 -79 28
-235 37 -289 16z"/>
<path d="M11997 5549 c-53 -12 -92 -34 -116 -65 -31 -40 -30 -148 3 -212 58
-113 189 -182 347 -182 99 0 161 22 215 76 81 80 83 164 7 245 -100 107 -314
172 -456 138z"/>
<path d="M7493 5531 c-45 -12 -93 -42 -116 -72 -29 -40 -26 -141 7 -206 56
-111 194 -183 351 -183 82 0 123 11 180 51 45 30 95 111 95 153 0 90 -116 194
-269 242 -55 18 -204 26 -248 15z"/>
<path d="M5620 5492 c-51 -27 -80 -90 -80 -173 0 -181 190 -367 385 -377 60
-3 75 0 104 20 120 81 94 249 -63 403 -121 120 -263 172 -346 127z"/>
<path d="M6285 5478 c-77 -27 -115 -78 -115 -151 0 -99 62 -198 157 -250 116
-63 280 -73 370 -23 25 15 47 26 49 26 2 0 4 -24 4 -53 0 -104 66 -193 185
-248 184 -86 378 -43 449 98 68 134 -96 289 -345 325 -74 11 -145 2 -211 -26
-16 -7 -17 -5 -7 24 33 95 -104 228 -284 276 -61 16 -209 17 -252 2z"/>
<path d="M3605 5422 c-111 -47 -209 -137 -264 -241 -43 -81 -54 -176 -26 -227
27 -50 88 -71 159 -55 251 56 466 438 296 526 -38 20 -115 18 -165 -3z"/>
<path d="M4046 5300 c-140 -123 -37 -395 191 -503 57 -26 80 -32 140 -32 77 0
106 13 147 69 31 40 29 144 -3 209 -75 152 -258 287 -391 287 -41 0 -55 -5
-84 -30z"/>
<path d="M8625 5278 c-50 -17 -93 -56 -105 -94 -30 -89 24 -221 113 -281 84
-56 151 -76 257 -77 84 0 101 2 146 26 61 32 96 71 120 133 14 39 15 52 5 86
-24 80 -146 169 -277 203 -69 18 -213 20 -259 4z"/>
<path d="M2699 5214 c-14 -9 -36 -32 -50 -52 -21 -31 -24 -47 -24 -116 0 -69
4 -90 29 -140 39 -79 124 -163 211 -206 61 -30 79 -35 147 -35 90 0 120 16
156 86 47 90 6 206 -117 330 -93 94 -177 140 -266 146 -44 3 -67 -1 -86 -13z"/>
<path d="M9503 5206 c-112 -36 -229 -142 -287 -257 -58 -115 -58 -196 0 -250
22 -20 36 -24 92 -24 91 0 164 37 258 131 180 178 191 396 21 410 -23 2 -61
-2 -84 -10z"/>
<path d="M760 5157 c-159 -66 -292 -225 -307 -369 -20 -200 203 -213 392 -23
222 221 162 493 -85 392z"/>
<path d="M4943 5140 c-97 -20 -144 -66 -151 -144 -9 -115 50 -211 168 -269
172 -87 358 -65 445 53 74 101 40 202 -96 283 -111 66 -265 98 -366 77z"/>
<path d="M8044 5131 c-63 -28 -104 -133 -85 -221 32 -148 150 -274 302 -321
80 -25 135 -24 183 4 82 47 100 152 46 266 -39 82 -150 194 -239 240 -67 35
-164 50 -207 32z"/>
<path d="M11563 5130 c-44 -10 -92 -40 -117 -73 -26 -36 -28 -123 -3 -187 31
-83 134 -162 249 -190 67 -17 204 -9 252 15 55 26 101 76 121 130 23 60 10
110 -47 171 -93 101 -318 167 -455 134z"/>
<path d="M2104 5051 c-141 -38 -248 -113 -280 -197 -16 -41 -16 -47 1 -90 36
-93 113 -149 223 -160 112 -12 251 33 326 104 79 76 111 206 67 278 -45 73
-198 103 -337 65z"/>
<path d="M1194 4946 c-93 -42 -120 -180 -60 -311 59 -130 229 -247 360 -248
79 -1 121 22 154 83 50 95 9 216 -117 340 -118 116 -257 173 -337 136z"/>
<path d="M9889 4916 c-117 -33 -229 -109 -265 -177 -40 -79 10 -189 111 -242
51 -26 172 -34 247 -17 112 27 209 95 244 172 l19 43 6 -66 c14 -161 151 -309
329 -355 189 -48 292 96 201 281 -71 143 -248 275 -374 278 -67 1 -99 -18
-134 -79 l-23 -39 0 53 c0 67 -20 103 -74 133 -34 20 -58 24 -141 26 -60 1
-118 -3 -146 -11z"/>
<path d="M6295 4896 c-75 -18 -177 -69 -223 -110 -97 -88 -94 -191 8 -279 116
-99 357 -75 484 49 60 58 80 116 77 221 -1 48 -51 99 -114 118 -60 18 -162 18
-232 1z"/>
<path d="M7549 4886 c-73 -30 -104 -52 -176 -130 -77 -82 -116 -160 -121 -241
-5 -78 15 -120 66 -142 85 -35 208 12 318 121 231 230 171 499 -87 392z"/>
<path d="M10964 4850 c-80 -19 -134 -80 -134 -152 0 -172 171 -308 387 -308
125 0 237 73 264 173 37 140 -189 299 -421 296 -36 -1 -79 -4 -96 -9z"/>
<path d="M3633 4791 c-120 -33 -217 -94 -258 -165 -30 -51 -31 -87 -6 -141 35
-75 115 -127 216 -140 111 -14 282 49 351 129 62 73 80 196 38 261 -44 67
-203 93 -341 56z"/>
<path d="M5679 4781 c-103 -40 -225 -154 -275 -258 -35 -71 -44 -165 -20 -211
36 -70 133 -80 242 -27 80 39 191 151 234 235 40 80 51 170 26 218 -32 61
-116 79 -207 43z"/>
<path d="M8833 4676 c-133 -33 -260 -125 -284 -205 -10 -34 -9 -47 6 -87 39
-102 128 -154 264 -154 214 0 371 128 371 300 0 59 -30 105 -85 134 -49 26
-193 32 -272 12z"/>
<path d="M4525 4652 c-165 -49 -275 -145 -275 -242 0 -61 53 -135 125 -173 34
-19 56 -22 150 -22 136 1 198 22 279 96 64 59 91 118 90 199 -1 68 -22 103
-78 132 -57 30 -206 35 -291 10z"/>
<path d="M2784 4570 c-188 -49 -303 -160 -280 -271 8 -43 50 -99 96 -130 153
-103 448 -20 520 145 34 78 30 164 -11 211 -57 64 -185 82 -325 45z"/>
<path d="M6782 4529 c-165 -28 -303 -119 -333 -219 -10 -33 -9 -46 5 -83 58
-153 264 -203 462 -111 100 47 163 135 171 239 4 51 1 65 -19 95 -44 67 -165
100 -286 79z"/>
<path d="M7842 4530 c-57 -12 -109 -45 -127 -80 -8 -16 -15 -55 -15 -87 0
-171 161 -295 381 -296 78 0 150 23 193 61 65 58 93 151 62 211 -21 39 -96
106 -153 134 -101 52 -249 76 -341 57z"/>
<path d="M1922 4465 c-101 -28 -132 -66 -132 -162 0 -112 62 -197 185 -254
182 -85 375 -44 446 93 38 74 22 135 -54 205 -110 101 -313 155 -445 118z"/>
<path d="M609 4444 c-30 -9 -59 -27 -78 -49 -27 -31 -31 -43 -31 -93 0 -108
37 -178 124 -235 136 -90 316 -101 429 -26 50 33 97 110 97 158 0 164 -326
312 -541 245z"/>
<path d="M5075 4372 c-147 -53 -285 -206 -316 -352 -15 -68 0 -119 43 -155 30
-25 38 -27 99 -23 87 7 154 42 245 133 180 178 191 396 21 411 -25 3 -62 -3
-92 -14z"/>
<path d="M3883 4339 c-51 -32 -77 -97 -71 -177 10 -135 101 -258 244 -329 69
-33 87 -38 150 -38 86 0 116 17 152 86 19 35 22 55 19 95 -17 171 -247 384
-415 384 -30 0 -58 -8 -79 -21z"/>
<path d="M5963 4313 c-33 -7 -90 -76 -103 -124 -34 -126 68 -311 216 -391 71
-38 159 -60 213 -52 50 8 102 48 121 94 17 42 8 136 -18 190 -80 165 -301 310
-429 283z"/>
<path d="M8984 4211 c-96 -26 -166 -63 -225 -118 -86 -80 -88 -161 -8 -248 54
-59 112 -80 214 -80 183 1 332 96 365 235 24 101 -7 172 -90 208 -57 24 -174
25 -256 3z"/>
<path d="M1380 4197 c-56 -37 -75 -81 -75 -167 0 -63 5 -85 30 -135 67 -134
215 -237 352 -243 90 -5 131 16 164 84 57 119 -37 299 -215 416 -105 68 -199
85 -256 45z"/>
<path d="M7127 4206 c-46 -17 -74 -40 -94 -80 -20 -39 -13 -138 15 -192 79
-154 337 -231 501 -147 101 51 149 160 107 242 -22 42 -102 110 -159 136 -116
53 -284 71 -370 41z"/>
<path d="M3167 4136 c-107 -23 -152 -80 -143 -180 14 -145 129 -247 313 -277
131 -22 247 20 304 109 41 65 46 102 19 157 -64 131 -317 230 -493 191z"/>
<path d="M8210 4073 c-88 -62 -104 -180 -42 -306 62 -125 211 -232 340 -244
72 -7 120 12 158 63 25 33 29 46 29 103 0 56 -6 76 -35 131 -46 87 -147 185
-234 230 -84 42 -176 52 -216 23z"/>
<path d="M5421 4048 c-140 -95 -85 -340 104 -469 111 -76 224 -99 301 -63 49
23 84 87 84 151 0 160 -224 385 -398 400 -48 4 -62 1 -91 -19z"/>
<path d="M2334 3910 c-94 -22 -140 -86 -130 -182 13 -131 105 -222 263 -263
180 -47 344 21 383 159 10 38 10 49 -7 87 -62 140 -327 243 -509 199z"/>
<path d="M6745 3834 c-107 -17 -214 -65 -282 -127 -80 -74 -91 -125 -46 -208
48 -89 155 -137 277 -126 179 18 309 111 336 241 28 135 -36 209 -192 220 -35
2 -76 2 -93 0z"/>
<path d="M7760 3825 c-188 -42 -333 -174 -306 -277 9 -38 56 -102 91 -127 132
-90 372 -52 486 78 68 77 87 197 42 260 -48 66 -185 95 -313 66z"/>
<path d="M865 3813 c-70 -19 -121 -111 -112 -201 14 -131 113 -260 251 -327
129 -62 230 -52 290 28 17 23 21 43 21 100 0 63 -5 80 -34 135 -84 155 -304
295 -416 265z"/>
<path d="M4534 3799 c-65 -12 -138 -54 -206 -118 -76 -72 -122 -144 -145 -232
-16 -63 -16 -68 1 -114 16 -40 25 -50 65 -68 45 -20 48 -20 111 -3 205 53 398
322 337 468 -23 56 -87 82 -163 67z"/>
<path d="M3875 3746 c-116 -38 -233 -140 -295 -256 -31 -58 -35 -73 -35 -143
0 -77 1 -79 34 -109 32 -28 38 -30 100 -26 107 6 227 81 308 195 76 106 103
218 70 282 -29 58 -107 82 -182 57z"/>
<path d="M5084 3719 c-72 -13 -146 -59 -220 -133 -77 -79 -117 -149 -135 -237
-10 -50 -9 -61 9 -101 17 -38 27 -48 66 -63 44 -17 50 -17 109 -1 204 56 395
323 334 468 -23 56 -87 82 -163 67z"/>
<path d="M8813 3621 c-69 -25 -128 -67 -194 -138 -130 -141 -162 -296 -77
-368 29 -24 38 -27 93 -23 88 5 164 46 251 132 157 157 191 351 69 402 -45 18
-79 17 -142 -5z"/>
<path d="M1634 3591 c-36 -16 -72 -69 -84 -124 -37 -162 111 -363 309 -421 78
-23 131 -21 172 7 86 58 103 151 49 266 -39 82 -150 194 -239 240 -67 35 -164
50 -207 32z"/>
<path d="M6130 3518 c-116 -20 -255 -135 -320 -263 -30 -60 -35 -78 -35 -141
0 -63 3 -76 24 -98 101 -107 347 14 462 226 30 56 34 72 34 140 0 70 -2 80
-26 103 -32 32 -80 44 -139 33z"/>
<path d="M7114 3466 c-97 -42 -122 -185 -56 -318 86 -175 333 -294 455 -219
51 31 81 98 74 161 -17 144 -179 322 -340 372 -69 21 -91 22 -133 4z"/>
<path d="M3080 3444 c-139 -30 -281 -130 -295 -208 -31 -162 152 -280 358
-232 184 43 277 140 277 289 0 65 -2 71 -33 102 -60 60 -173 78 -307 49z"/>
<path d="M8074 3392 c-166 -58 -313 -234 -322 -386 -5 -100 36 -146 132 -146
132 0 307 140 372 297 47 115 27 206 -52 239 -43 18 -68 17 -130 -4z"/>
<path d="M5361 3365 c-145 -33 -277 -126 -300 -212 -10 -37 -9 -49 10 -93 36
-83 107 -132 210 -146 l50 -7 -56 -22 c-111 -45 -217 -150 -269 -265 -49 -109
-40 -194 24 -238 30 -20 44 -23 91 -19 32 3 79 16 108 31 28 14 51 24 51 22 0
-2 -7 -21 -16 -42 -24 -57 -16 -155 20 -227 65 -134 223 -241 356 -242 l66 0
-24 -35 c-21 -31 -23 -43 -20 -106 6 -88 37 -147 104 -198 80 -62 143 -80 270
-81 106 0 113 1 160 30 65 40 114 113 114 169 0 130 -198 257 -405 260 -49 1
-103 -3 -119 -7 l-28 -8 21 27 c77 98 30 250 -120 388 -87 81 -189 129 -262
124 l-54 -3 49 55 c75 84 113 169 113 252 0 60 -3 70 -29 97 -16 16 -43 33
-60 37 -30 7 -30 7 21 20 113 29 200 91 238 170 28 58 31 161 7 200 -44 69
-187 100 -321 69z"/>
<path d="M2379 3261 c-103 -40 -225 -154 -275 -258 -35 -71 -44 -165 -20 -211
36 -70 133 -80 242 -27 80 39 191 151 234 235 41 81 51 169 26 219 -31 59
-118 77 -207 42z"/>
<path d="M6333 3221 c-48 -30 -76 -93 -76 -169 1 -175 189 -364 375 -379 82
-7 128 12 164 66 61 93 20 228 -109 355 -123 124 -274 177 -354 127z"/>
<path d="M3748 3124 c-114 -27 -239 -108 -275 -177 -21 -41 -13 -117 18 -162
57 -85 180 -127 304 -106 90 16 171 54 224 104 59 57 81 107 81 189 0 61 -3
71 -31 103 -54 61 -187 82 -321 49z"/>
<path d="M4400 3119 c-45 -9 -95 -64 -110 -120 -16 -59 -4 -128 36 -209 43
-86 113 -150 214 -199 63 -30 86 -36 142 -36 74 0 105 16 146 75 16 24 22 47
22 89 0 188 -279 436 -450 400z"/>
<path d="M1294 3100 c-32 -13 -72 -66 -85 -113 -38 -140 70 -320 240 -405 67
-33 83 -37 152 -37 72 0 80 2 110 30 89 84 75 208 -39 352 -49 61 -152 137
-222 164 -52 20 -120 24 -156 9z"/>
<path d="M8474 3071 c-95 -24 -202 -102 -270 -197 -75 -106 -101 -205 -70
-278 21 -50 51 -66 122 -66 209 0 455 308 384 479 -20 50 -98 79 -166 62z"/>
<path d="M6920 2912 c-53 -29 -85 -93 -85 -172 0 -167 160 -340 350 -380 126
-26 215 43 215 168 0 197 -334 464 -480 384z"/>
<path d="M2760 2864 c-159 -58 -306 -233 -318 -380 -11 -145 99 -197 254 -120
152 76 274 246 274 381 0 49 -4 60 -33 91 -28 31 -41 37 -83 40 -29 3 -67 -2
-94 -12z"/>
<path d="M5761 2805 c-68 -58 -80 -187 -26 -297 39 -81 124 -162 215 -206 64
-31 85 -36 146 -37 62 0 75 3 106 27 46 35 73 102 65 159 -23 174 -248 379
-415 379 -50 0 -66 -4 -91 -25z"/>
<path d="M7649 2700 c-60 -10 -100 -32 -133 -70 -35 -43 -37 -132 -2 -205 70
-151 319 -238 485 -169 105 44 169 171 127 253 -63 121 -311 220 -477 191z"/>
<path d="M3154 2686 c-17 -8 -44 -31 -60 -52 -27 -35 -29 -44 -29 -123 0 -75
4 -93 29 -144 76 -150 288 -272 413 -238 54 15 108 75 118 129 9 57 -15 135
-66 211 -100 150 -308 261 -405 217z"/>
<path d="M3854 2646 c-95 -43 -120 -183 -56 -314 37 -77 124 -162 208 -203 56
-28 82 -35 144 -37 91 -4 128 15 161 80 48 95 1 227 -126 347 -117 110 -253
163 -331 127z"/>
<path d="M1901 2558 c-165 -112 -56 -411 189 -521 27 -12 75 -21 120 -24 63
-4 80 -1 107 16 62 39 90 139 61 222 -51 151 -244 314 -386 326 -48 4 -62 1
-91 -19z"/>
<path d="M6559 2506 c-31 -12 -72 -33 -92 -45 -60 -37 -148 -140 -185 -218
-31 -65 -34 -80 -30 -138 6 -90 32 -117 118 -123 55 -4 69 -1 133 31 161 80
288 263 275 397 -6 56 -27 86 -75 106 -45 19 -79 17 -144 -10z"/>
<path d="M4682 2385 c-166 -46 -282 -147 -282 -245 0 -61 54 -135 125 -173 34
-19 56 -22 145 -22 133 0 206 25 285 97 61 56 87 110 88 188 2 116 -57 162
-213 167 -62 2 -113 -2 -148 -12z"/>
<path d="M7102 2264 c-65 -32 -84 -65 -83 -145 0 -110 61 -197 175 -250 109
-51 243 -61 329 -25 77 32 146 121 147 189 1 92 -129 201 -287 242 -31 8 -96
15 -143 15 -73 0 -94 -4 -138 -26z"/>
<path d="M2662 2156 c-99 -32 -127 -74 -120 -177 9 -116 78 -200 208 -250 69
-27 210 -37 266 -19 98 31 174 116 174 195 0 91 -106 191 -249 236 -84 27
-221 34 -279 15z"/>
<path d="M6803 2061 c-201 -73 -372 -348 -294 -474 110 -178 511 100 511 354
0 120 -85 167 -217 120z"/>
<path d="M4123 1991 c-58 -27 -87 -84 -88 -171 0 -163 145 -327 334 -376 138
-35 231 31 231 165 0 139 -186 342 -352 387 -68 18 -75 17 -125 -5z"/>
<path d="M3630 1980 c-117 -18 -254 -88 -306 -155 -56 -73 -50 -143 18 -220
140 -159 501 -81 574 123 19 54 17 138 -3 173 -36 61 -164 97 -283 79z"/>
<path d="M5075 1912 c-135 -41 -242 -122 -266 -201 -10 -34 -9 -47 6 -87 38
-100 129 -154 259 -154 211 0 363 116 374 285 3 50 0 66 -20 95 -37 55 -87 75
-198 77 -68 2 -112 -3 -155 -15z"/>
<path d="M354 1100 c-59 -9 -144 -35 -194 -60 -52 -26 -125 -95 -144 -134 -23
-48 -20 -81 11 -138 51 -93 145 -135 281 -125 84 6 168 34 221 75 33 24 35 25
45 7 53 -91 199 -174 309 -175 33 0 33 -3 5 -43 -20 -27 -23 -45 -23 -117 0
-74 4 -92 29 -142 55 -108 174 -203 295 -234 139 -35 235 29 236 157 0 124
-127 289 -280 365 l-74 37 38 27 c71 52 104 134 82 203 -14 42 -91 116 -152
147 -113 58 -243 82 -337 61 l-53 -11 -37 39 c-51 53 -151 77 -258 61z"/>
<path d="M7271 1088 c-47 -32 -72 -68 -81 -119 -33 -179 140 -389 354 -430
169 -32 260 120 175 290 -66 131 -238 263 -364 277 -42 5 -56 2 -84 -18z"/>
<path d="M6140 1084 c-193 -70 -363 -322 -307 -457 81 -193 459 20 518 293 14
64 2 115 -36 150 -32 30 -112 37 -175 14z"/>
<path d="M8150 1091 c-101 -31 -236 -153 -289 -262 -133 -271 101 -377 338
-154 154 145 202 322 110 399 -25 21 -41 26 -82 25 -29 0 -63 -4 -77 -8z"/>
<path d="M8760 1086 c-169 -43 -300 -149 -300 -242 1 -74 82 -171 164 -197 61
-18 191 -13 258 11 113 40 187 109 214 198 31 103 6 177 -73 215 -59 28 -182
35 -263 15z"/>
<path d="M4589 1080 c-60 -10 -100 -32 -133 -70 -35 -43 -37 -132 -2 -205 71
-154 325 -240 491 -166 43 19 110 87 125 127 14 37 12 91 -4 123 -63 121 -311
220 -477 191z"/>
<path d="M3878 1066 c-92 -33 -124 -82 -115 -177 11 -128 106 -223 264 -264
185 -48 341 20 383 167 38 131 -195 288 -425 287 -38 0 -87 -6 -107 -13z"/>
<path d="M5470 1073 c-51 -8 -155 -45 -197 -69 -62 -37 -121 -101 -135 -145
-15 -52 2 -108 50 -161 90 -100 255 -114 419 -37 114 54 184 168 169 278 -13
104 -144 161 -306 134z"/>
<path d="M6775 1070 c-131 -20 -233 -68 -300 -142 -66 -74 -70 -125 -16 -209
95 -150 391 -143 536 12 46 49 75 122 75 189 0 106 -134 174 -295 150z"/>
<path d="M2203 1055 c-132 -37 -250 -125 -274 -204 -10 -34 -9 -47 5 -85 37
-97 118 -148 243 -154 179 -8 331 76 378 207 34 98 10 181 -65 225 -45 27
-209 33 -287 11z"/>
<path d="M2854 1056 c-149 -47 -308 -236 -321 -382 -4 -51 -2 -64 19 -94 33
-49 63 -62 130 -57 196 16 430 302 376 462 -25 75 -103 102 -204 71z"/>
<path d="M9429 1041 c-243 -95 -404 -439 -242 -516 160 -76 463 183 463 396 0
27 -7 63 -15 79 -31 59 -116 76 -206 41z"/>
<path d="M3243 1040 c-44 -10 -92 -40 -116 -72 -26 -34 -28 -135 -5 -189 28
-64 87 -120 168 -157 65 -31 88 -36 173 -40 94 -5 99 -4 163 28 51 25 72 42
94 77 55 86 51 137 -15 211 -97 108 -319 177 -462 142z"/>
<path d="M1579 1030 c-175 -27 -339 -147 -339 -248 0 -49 35 -116 78 -152 147
-121 460 -48 542 127 29 62 31 164 3 202 -42 58 -166 89 -284 71z"/>
<path d="M8491 608 c-64 -44 -76 -69 -76 -166 0 -76 4 -94 30 -145 75 -149
283 -268 411 -236 84 22 135 112 114 205 -36 162 -234 342 -395 360 -42 5 -56
2 -84 -18z"/>
<path d="M6364 579 c-42 -12 -90 -68 -105 -121 -50 -187 174 -441 392 -442 53
-1 73 3 96 20 111 83 95 234 -41 381 -111 120 -254 188 -342 162z"/>
<path d="M6992 565 c-50 -42 -66 -81 -65 -156 1 -137 96 -270 246 -344 68 -33
89 -39 147 -39 54 -1 74 3 97 20 121 89 91 259 -71 411 -94 88 -169 126 -256
131 -60 4 -69 2 -98 -23z"/>
<path d="M5010 562 c-51 -27 -80 -90 -80 -173 0 -180 192 -368 385 -377 60 -3
75 0 104 20 120 81 94 249 -63 403 -121 120 -263 172 -346 127z"/>
<path d="M4076 545 c-88 -31 -204 -133 -260 -229 -34 -59 -59 -158 -50 -199
32 -149 224 -135 387 28 149 148 191 346 86 400 -35 19 -112 19 -163 0z"/>
<path d="M2788 526 c-80 -33 -151 -89 -209 -166 -145 -192 -109 -381 68 -356
112 15 266 137 332 265 41 79 53 170 27 219 -33 65 -118 79 -218 38z"/>
<path d="M1929 487 c-183 -55 -292 -170 -261 -275 36 -118 173 -186 329 -162
90 14 202 69 247 122 67 78 85 204 39 266 -51 70 -209 91 -354 49z"/>
<path d="M3345 482 c-135 -41 -242 -122 -266 -201 -10 -34 -9 -47 6 -86 20
-54 66 -103 121 -131 59 -29 228 -27 307 5 128 50 196 134 204 248 4 59 2 72
-19 103 -37 55 -87 75 -198 77 -68 2 -112 -3 -155 -15z"/>
<path d="M4625 494 c-143 -22 -283 -97 -330 -179 -34 -57 -33 -109 4 -167 50
-79 130 -118 240 -118 211 0 371 128 371 295 0 75 -22 115 -82 143 -43 21
-146 34 -203 26z"/>
<path d="M5670 491 c-93 -29 -124 -69 -124 -161 0 -143 113 -255 292 -290 126
-25 241 6 307 83 71 83 68 166 -9 241 -88 85 -225 137 -361 135 -44 0 -91 -4
-105 -8z"/>
<path d="M7766 465 c-22 -8 -53 -27 -70 -44 -26 -26 -31 -39 -34 -94 -9 -144
95 -260 270 -302 150 -35 277 0 345 98 33 47 42 121 20 163 -20 39 -94 107
-144 132 -114 58 -294 80 -387 47z"/>
</g>
</svg>
